<svg width="50" height="50" viewBox="0 0 50 50" fill="none" xmlns="http://www.w3.org/2000/svg">
<ellipse cx="25.5" cy="11" rx="20.5" ry="7" fill="#FF4D4D"/>
<path d="M25.5281 46.8262C24.6036 46.9412 23.6661 46.8938 22.7579 46.6862L18.8079 45.7833C16.4087 45.2349 14.4702 43.4734 13.6952 41.1376L7.32945 21.9498C6.3556 19.0145 10.099 16.8477 12.1592 19.1543V19.1543C12.479 19.5123 12.884 19.7837 13.3367 19.9434L21.6549 22.8769C23.2632 23.4441 25.0108 23.4824 26.6425 22.9864L36.7 19.9287C37.1922 19.7791 37.6344 19.4981 37.9788 19.116V19.116C40.0724 16.7937 43.8306 19.0811 42.7295 22.0075L35.236 41.9235C34.3391 44.3071 32.1946 45.9969 29.6673 46.3113L25.5281 46.8262Z" fill="#FF4C4C"/>
</svg>
