<svg width="16" height="19" viewBox="0 0 16 19" fill="none" xmlns="http://www.w3.org/2000/svg">
<path d="M2.28571 1.14282C1.025 1.14282 0 2.16782 0 3.42854V14.8571C0 16.1178 1.025 17.1428 2.28571 17.1428H13.7143C14.975 17.1428 16 16.1178 16 14.8571V3.42854C16 2.16782 14.975 1.14282 13.7143 1.14282H2.28571ZM12.0357 7.46425L7.46429 12.0357C7.12857 12.3714 6.58571 12.3714 6.25357 12.0357L3.96786 9.74997C3.63214 9.41425 3.63214 8.87139 3.96786 8.53925C4.30357 8.20711 4.84643 8.20354 5.17857 8.53925L6.85714 10.2178L10.8214 6.24997C11.1571 5.91425 11.7 5.91425 12.0321 6.24997C12.3643 6.58568 12.3679 7.12854 12.0321 7.46068L12.0357 7.46425Z" fill="#BB2B2B"/>
</svg>
