<svg width="16" height="19" viewBox="0 0 16 19" fill="none" xmlns="http://www.w3.org/2000/svg">
<path d="M2.28571 2.85711C1.97143 2.85711 1.71429 3.11425 1.71429 3.42854V14.8571C1.71429 15.1714 1.97143 15.4285 2.28571 15.4285H13.7143C14.0286 15.4285 14.2857 15.1714 14.2857 14.8571V3.42854C14.2857 3.11425 14.0286 2.85711 13.7143 2.85711H2.28571ZM0 3.42854C0 2.16782 1.025 1.14282 2.28571 1.14282H13.7143C14.975 1.14282 16 2.16782 16 3.42854V14.8571C16 16.1178 14.975 17.1428 13.7143 17.1428H2.28571C1.025 17.1428 0 16.1178 0 14.8571V3.42854ZM12.0357 7.46425L7.46429 12.0357C7.12857 12.3714 6.58571 12.3714 6.25357 12.0357L3.96786 9.74997C3.63214 9.41425 3.63214 8.87139 3.96786 8.53925C4.30357 8.20711 4.84643 8.20354 5.17857 8.53925L6.85714 10.2178L10.8214 6.24997C11.1571 5.91425 11.7 5.91425 12.0321 6.24997C12.3643 6.58568 12.3679 7.12854 12.0321 7.46068L12.0357 7.46425Z" fill="#BB2B2B"/>
</svg>
